<svg width="20.000000" height="20.000000" viewBox="0 0 20 20" fill="none" xmlns="http://www.w3.org/2000/svg" xmlns:xlink="http://www.w3.org/1999/xlink">
	<desc>
			Created with Pixso.
	</desc>
	<defs>
		<clipPath id="clip156_594">
			<rect id="20px/show" rx="0.000000" width="19.000000" height="19.000000" transform="translate(0.500000 0.500000)" fill="white" fill-opacity="0"/>
		</clipPath>
	</defs>
	<rect id="20px/show" rx="0.000000" width="19.000000" height="19.000000" transform="translate(0.500000 0.500000)" fill="#FFFFFF" fill-opacity="0"/>
	<g clip-path="url(#clip156_594)">
		<path id="Vector" d="M19.33 9.78C18.6 7.88 17.32 6.24 15.66 5.05C14 3.87 12.03 3.2 10 3.12C7.96 3.2 5.99 3.87 4.33 5.05C2.67 6.24 1.39 7.88 0.66 9.78C0.61 9.92 0.61 10.07 0.66 10.21C1.39 12.11 2.67 13.75 4.33 14.94C5.99 16.12 7.96 16.79 10 16.87C12.03 16.79 14 16.12 15.66 14.94C17.32 13.75 18.6 12.11 19.33 10.21C19.38 10.07 19.38 9.92 19.33 9.78ZM10 15.62C6.68 15.62 3.18 13.16 1.91 10C3.18 6.83 6.68 4.37 10 4.37C13.31 4.37 16.81 6.83 18.08 10C16.81 13.16 13.31 15.62 10 15.62Z" fill="#4F8FF0" fill-opacity="1.000000" fill-rule="nonzero"/>
		<path id="Vector" d="M10 6.25C9.25 6.25 8.53 6.46 7.91 6.88C7.29 7.29 6.81 7.87 6.53 8.56C6.25 9.25 6.17 10 6.32 10.73C6.46 11.45 6.82 12.12 7.34 12.65C7.87 13.17 8.54 13.53 9.26 13.67C9.99 13.82 10.75 13.74 11.43 13.46C12.12 13.18 12.7 12.7 13.11 12.08C13.53 11.46 13.75 10.74 13.75 10C13.75 9 13.35 8.05 12.65 7.34C11.94 6.64 10.99 6.25 10 6.25ZM10 12.5C9.5 12.5 9.02 12.35 8.61 12.07C8.2 11.8 7.87 11.41 7.69 10.95C7.5 10.5 7.45 9.99 7.54 9.51C7.64 9.02 7.88 8.58 8.23 8.23C8.58 7.88 9.02 7.64 9.51 7.54C9.99 7.45 10.5 7.5 10.95 7.69C11.41 7.87 11.8 8.19 12.07 8.61C12.35 9.02 12.5 9.5 12.5 10C12.5 10.66 12.23 11.29 11.76 11.76C11.29 12.23 10.66 12.5 10 12.5Z" fill="#4F8FF0" fill-opacity="1.000000" fill-rule="nonzero"/>
	</g>
</svg>
