<svg width="32.000000" height="32.000000" viewBox="0 0 32 32" fill="none" xmlns="http://www.w3.org/2000/svg" xmlns:xlink="http://www.w3.org/1999/xlink">
	<desc>
			Created with Pixso.
	</desc>
	<defs>
		<clipPath id="clip156_623">
			<rect id="32px/map" rx="0.000000" width="31.000000" height="31.000000" transform="translate(0.500000 0.500000)" fill="white" fill-opacity="0"/>
		</clipPath>
	</defs>
	<rect id="32px/map" rx="0.000000" width="31.000000" height="31.000000" transform="translate(0.500000 0.500000)" fill="#FFFFFF" fill-opacity="0"/>
	<g clip-path="url(#clip156_623)">
		<path id="Vector" d="M16 8.66C16.88 8.66 17.73 9.01 18.35 9.64C18.98 10.26 19.33 11.11 19.33 12C19.33 12.43 19.24 12.87 19.07 13.27C18.91 13.68 18.66 14.04 18.35 14.35C18.04 14.66 17.67 14.91 17.27 15.07C16.87 15.24 16.43 15.33 16 15.33C15.11 15.33 14.26 14.98 13.64 14.35C13.01 13.73 12.66 12.88 12.66 12C12.66 11.11 13.01 10.26 13.64 9.64C14.26 9.01 15.11 8.66 16 8.66ZM16 2.66C18.47 2.66 20.84 3.65 22.59 5.4C24.34 7.15 25.33 9.52 25.33 12C25.33 19 16 29.33 16 29.33C16 29.33 6.66 19 6.66 12C6.66 9.52 7.64 7.15 9.4 5.4C11.15 3.65 13.52 2.66 16 2.66ZM16 5.33C14.23 5.33 12.53 6.03 11.28 7.28C10.03 8.53 9.33 10.23 9.33 12C9.33 13.33 9.33 16 16 24.94C22.66 16 22.66 13.33 22.66 12C22.66 10.23 21.96 8.53 20.71 7.28C19.46 6.03 17.76 5.33 16 5.33Z" fill="#F8F5F4" fill-opacity="1.000000" fill-rule="nonzero"/>
	</g>
</svg>
