<svg width="35.000000" height="35.000000" viewBox="0 0 35 35" fill="none" xmlns="http://www.w3.org/2000/svg" xmlns:xlink="http://www.w3.org/1999/xlink">
	<desc>
			Created with Pixso.
	</desc>
	<defs>
		<clipPath id="clip156_601">
			<rect id="35px/business" rx="0.000000" width="34.000000" height="34.000000" transform="translate(0.500000 0.500000)" fill="white" fill-opacity="0"/>
		</clipPath>
	</defs>
	<rect id="35px/business" rx="0.000000" width="34.000000" height="34.000000" transform="translate(0.500000 0.500000)" fill="#FFFFFF" fill-opacity="0"/>
	<g clip-path="url(#clip156_601)">
		<path id="Vector" d="M17.5 10.2L17.5 7.29C17.5 5.68 16.18 4.37 14.58 4.37L5.83 4.37C4.22 4.37 2.91 5.68 2.91 7.29L2.91 27.7C2.91 29.31 4.22 30.62 5.83 30.62L29.16 30.62C30.77 30.62 32.08 29.31 32.08 27.7L32.08 13.12C32.08 11.52 30.77 10.2 29.16 10.2L17.5 10.2ZM8.75 27.7L5.83 27.7L5.83 24.79L8.75 24.79L8.75 27.7ZM8.75 21.87L5.83 21.87L5.83 18.95L8.75 18.95L8.75 21.87ZM8.75 16.04L5.83 16.04L5.83 13.12L8.75 13.12L8.75 16.04ZM8.75 10.2L5.83 10.2L5.83 7.29L8.75 7.29L8.75 10.2ZM14.58 27.7L11.66 27.7L11.66 24.79L14.58 24.79L14.58 27.7ZM14.58 21.87L11.66 21.87L11.66 18.95L14.58 18.95L14.58 21.87ZM14.58 16.04L11.66 16.04L11.66 13.12L14.58 13.12L14.58 16.04ZM14.58 10.2L11.66 10.2L11.66 7.29L14.58 7.29L14.58 10.2ZM27.7 27.7L17.5 27.7L17.5 24.79L20.41 24.79L20.41 21.87L17.5 21.87L17.5 18.95L20.41 18.95L20.41 16.04L17.5 16.04L17.5 13.12L27.7 13.12C28.51 13.12 29.16 13.78 29.16 14.58L29.16 26.25C29.16 27.05 28.51 27.7 27.7 27.7ZM26.25 16.04L23.33 16.04L23.33 18.95L26.25 18.95L26.25 16.04ZM26.25 21.87L23.33 21.87L23.33 24.79L26.25 24.79L26.25 21.87Z" fill="#4F8FF0" fill-opacity="1.000000" fill-rule="nonzero"/>
	</g>
</svg>
