<svg width="35.000000" height="35.000000" viewBox="0 0 35 35" fill="none" xmlns="http://www.w3.org/2000/svg" xmlns:xlink="http://www.w3.org/1999/xlink">
	<desc>
			Created with Pixso.
	</desc>
	<defs>
		<clipPath id="clip156_605">
			<rect id="35px/request" rx="0.000000" width="34.000000" height="34.000000" transform="translate(0.500000 0.500000)" fill="white" fill-opacity="0"/>
		</clipPath>
	</defs>
	<rect id="35px/request" rx="0.000000" width="34.000000" height="34.000000" transform="translate(0.500000 0.500000)" fill="#FFFFFF" fill-opacity="0"/>
	<g clip-path="url(#clip156_605)">
		<path id="Vector" d="M26.97 33.54L6.56 33.54C4.95 33.54 3.64 32.22 3.64 30.62L3.64 10.2L6.56 10.2L6.56 30.62L26.97 30.62L26.97 33.54ZM21.87 10.2L21.87 7.29L18.95 7.29L18.95 10.2L16.04 10.2L16.04 13.12L18.95 13.12L18.95 16.04L21.87 16.04L21.87 13.12L24.79 13.12L24.79 10.2L21.87 10.2ZM24.79 18.95L16.04 18.95L16.04 21.87L24.79 21.87L24.79 18.95ZM22.6 1.45L12.39 1.45C10.79 1.45 9.49 2.77 9.49 4.37L9.47 24.79C9.47 26.39 10.77 27.7 12.38 27.7L28.43 27.7C30.04 27.7 31.35 26.39 31.35 24.79L31.35 10.2L22.6 1.45ZM28.43 24.79L12.39 24.79L12.39 4.37L21.39 4.37L28.43 11.41L28.43 24.79Z" fill="#4F8FF0" fill-opacity="1.000000" fill-rule="nonzero"/>
	</g>
</svg>
