<svg width="35.000000" height="35.000000" viewBox="0 0 35 35" fill="none" xmlns="http://www.w3.org/2000/svg" xmlns:xlink="http://www.w3.org/1999/xlink">
	<desc>
			Created with Pixso.
	</desc>
	<defs>
		<clipPath id="clip156_609">
			<rect id="35px/exit" rx="0.000000" width="34.000000" height="34.000000" transform="translate(0.500000 0.500000)" fill="white" fill-opacity="0"/>
		</clipPath>
	</defs>
	<rect id="35px/exit" rx="0.000000" width="34.000000" height="34.000000" transform="translate(0.500000 0.500000)" fill="#FFFFFF" fill-opacity="0"/>
	<g clip-path="url(#clip156_609)">
		<path id="Vector" d="M15.73 23.75C16.3 24.32 17.22 24.32 17.79 23.75L23.02 18.52C23.59 17.95 23.59 17.03 23.02 16.46L17.79 11.22C17.22 10.66 16.3 10.66 15.73 11.22C15.16 11.79 15.16 12.71 15.73 13.28L18.47 16.04L5.83 16.04C5.03 16.04 4.37 16.69 4.37 17.5C4.37 18.3 5.03 18.95 5.83 18.95L18.47 18.95L15.73 21.7C15.16 22.26 15.18 23.2 15.73 23.75ZM27.7 4.37L7.29 4.37C5.67 4.37 4.37 5.68 4.37 7.29L4.37 11.66C4.37 12.46 5.03 13.12 5.83 13.12C6.63 13.12 7.29 12.46 7.29 11.66L7.29 8.75C7.29 7.94 7.94 7.29 8.75 7.29L26.25 7.29C27.05 7.29 27.7 7.94 27.7 8.75L27.7 26.25C27.7 27.05 27.05 27.7 26.25 27.7L8.75 27.7C7.94 27.7 7.29 27.05 7.29 26.25L7.29 23.33C7.29 22.53 6.63 21.87 5.83 21.87C5.03 21.87 4.37 22.53 4.37 23.33L4.37 27.7C4.37 29.31 5.68 30.62 7.29 30.62L27.7 30.62C29.31 30.62 30.62 29.31 30.62 27.7L30.62 7.29C30.62 5.68 29.31 4.37 27.7 4.37Z" fill="#4F8FF0" fill-opacity="1.000000" fill-rule="nonzero"/>
	</g>
</svg>
