<svg width="35.000000" height="35.000000" viewBox="0 0 35 35" fill="none" xmlns="http://www.w3.org/2000/svg" xmlns:xlink="http://www.w3.org/1999/xlink">
	<desc>
			Created with Pixso.
	</desc>
	<defs>
		<clipPath id="clip156_599">
			<rect id="35px/profile" rx="0.000000" width="34.000000" height="34.000000" transform="translate(0.500000 0.500000)" fill="white" fill-opacity="0"/>
		</clipPath>
	</defs>
	<rect id="35px/profile" rx="0.000000" width="34.000000" height="34.000000" transform="translate(0.500000 0.500000)" fill="#FFFFFF" fill-opacity="0"/>
	<g clip-path="url(#clip156_599)">
		<path id="Vector" d="M5.83 8.75L2.91 8.75L2.91 29.16C2.91 30.77 4.22 32.08 5.83 32.08L26.25 32.08L26.25 29.16L5.83 29.16L5.83 8.75ZM20.41 16.04C22.83 16.04 24.79 14.08 24.79 11.66C24.79 9.24 22.83 7.29 20.41 7.29C17.99 7.29 16.04 9.24 16.04 11.66C16.04 14.08 17.99 16.04 20.41 16.04ZM20.41 10.2C21.21 10.2 21.87 10.86 21.87 11.66C21.87 12.46 21.21 13.12 20.41 13.12C19.61 13.12 18.95 12.46 18.95 11.66C18.95 10.86 19.61 10.2 20.41 10.2ZM29.16 2.91L11.66 2.91C10.06 2.91 8.75 4.22 8.75 5.83L8.75 23.33C8.75 24.93 10.06 26.25 11.66 26.25L29.16 26.25C30.77 26.25 32.08 24.93 32.08 23.33L32.08 5.83C32.08 4.22 30.77 2.91 29.16 2.91ZM15.58 23.33C16.97 22.41 18.63 21.87 20.41 21.87C22.19 21.87 23.85 22.41 25.24 23.33L15.58 23.33ZM29.16 22.93C27.02 20.5 23.91 18.95 20.41 18.95C16.91 18.95 13.81 20.5 11.66 22.93L11.66 5.83L29.16 5.83L29.16 22.93Z" fill="#4F8FF0" fill-opacity="1.000000" fill-rule="nonzero"/>
	</g>
</svg>
