<svg width="32.000000" height="32.000000" viewBox="0 0 32 32" fill="none" xmlns="http://www.w3.org/2000/svg" xmlns:xlink="http://www.w3.org/1999/xlink">
	<desc>
			Created with Pixso.
	</desc>
	<defs>
		<clipPath id="clip156_617">
			<rect id="32px/mail" rx="0.000000" width="31.000000" height="31.000000" transform="translate(0.500000 0.500000)" fill="white" fill-opacity="0"/>
		</clipPath>
	</defs>
	<rect id="32px/mail" rx="0.000000" width="31.000000" height="31.000000" transform="translate(0.500000 0.500000)" fill="#FFFFFF" fill-opacity="0"/>
	<g clip-path="url(#clip156_617)">
		<path id="Vector" d="M5.33 26.66C4.59 26.66 3.97 26.4 3.44 25.88C2.92 25.35 2.66 24.73 2.66 24L2.66 8C2.66 7.26 2.92 6.63 3.45 6.11C3.97 5.59 4.6 5.33 5.33 5.33L26.66 5.33C27.39 5.33 28.02 5.59 28.55 6.11C29.07 6.63 29.33 7.26 29.33 8L29.33 24C29.33 24.73 29.07 25.36 28.54 25.88C28.02 26.4 27.39 26.66 26.66 26.66L5.33 26.66ZM16 17.33L5.33 10.66L5.33 24L26.66 24L26.66 10.66L16 17.33ZM16 14.66L26.66 8L5.33 8L16 14.66ZM5.33 10.66L5.33 8L5.33 24L5.33 10.66Z" fill="#F8F5F4" fill-opacity="1.000000" fill-rule="nonzero"/>
	</g>
</svg>
