<svg width="32.000000" height="32.000000" viewBox="0 0 32 32" fill="none" xmlns="http://www.w3.org/2000/svg" xmlns:xlink="http://www.w3.org/1999/xlink">
	<desc>
			Created with Pixso.
	</desc>
	<defs>
		<clipPath id="clip156_611">
			<rect id="32px/phone" rx="0.000000" width="31.000000" height="31.000000" transform="translate(0.500000 0.500000)" fill="white" fill-opacity="0"/>
		</clipPath>
	</defs>
	<rect id="32px/phone" rx="0.000000" width="31.000000" height="31.000000" transform="translate(0.500000 0.500000)" fill="#FFFFFF" fill-opacity="0"/>
	<g clip-path="url(#clip156_611)">
		<path id="Vector" d="M21.33 1.33L10.66 1.33C8.45 1.33 6.66 3.11 6.66 5.33L6.66 26.66C6.66 28.87 8.45 30.66 10.66 30.66L21.33 30.66C23.54 30.66 25.33 28.87 25.33 26.66L25.33 5.33C25.33 3.11 23.54 1.33 21.33 1.33ZM22.66 24L9.33 24L9.33 5.33L22.66 5.33L22.66 24ZM18.66 28L13.33 28L13.33 26.66L18.66 26.66L18.66 28Z" fill="#F8F5F4" fill-opacity="1.000000" fill-rule="nonzero"/>
	</g>
</svg>
