<svg width="50.118164" height="50.499023" viewBox="0 0 50.1182 50.499" fill="none" xmlns="http://www.w3.org/2000/svg" xmlns:xlink="http://www.w3.org/1999/xlink">
	<desc>
			Created with Pixso.
	</desc>
	<defs/>
	<path id="Vector" d="M47.37 0L36.36 3.2L40.82 0.18C38.01 0.82 34.45 2.06 29.98 4.07L22.69 11.67L25.28 6.36C22.77 7.75 20.12 9.58 17.56 11.71L15.87 18.62L15.5 13.51C12.98 15.83 10.6 18.41 8.64 21.12C6.57 23.97 4.96 26.98 4.15 29.98L1.13 27.96C1.4 30.5 2.23 32.72 3.61 34.75L0 33.64C0.82 36.16 2.16 37.8 4.43 39.12C3.16 42.7 2.56 46.43 1.92 50.16L3.9 50.49C6.19 27.65 22.36 13.08 36.98 6.63L37.73 8.49C24.65 14.35 14.49 24.23 9.17 38.47C11.12 38.48 13.02 38.25 14.78 37.8L15.31 31.25L16.71 37.22C17.89 36.79 18.96 36.27 19.92 35.67L17.69 31L21.22 34.74C22.07 34.05 22.78 33.27 23.32 32.43C26.59 27.32 30 22.25 36.73 18.01L31.82 16.27L39.35 16.5C40.57 15.87 41.86 15.11 42.84 14.39L37.5 13.96L45.52 12.07C46.15 11.45 46.73 10.79 47.25 10.14C49.11 7.78 50.37 5.33 50.07 3.09C49.93 1.98 49.26 0.93 48.18 0.34C47.91 0.2 47.62 0.08 47.37 0Z" fill="#222222" fill-opacity="1.000000" fill-rule="nonzero"/>
</svg>
